<mxfile host="app.diagrams.net" modified="2021-06-14T19:01:53.840Z" agent="5.0 (Windows NT 10.0; Win64; x64) AppleWebKit/537.36 (KHTML, like Gecko) Chrome/91.0.4472.77 Safari/537.36" etag="X17o-5UI74V7ciBK4C5j" version="14.7.7" type="github">
  <diagram id="2HEYMEP-8rkVqhFndrCG" name="Page-1">
    <mxGraphModel dx="1297" dy="740" grid="1" gridSize="10" guides="1" tooltips="1" connect="1" arrows="1" fold="1" page="1" pageScale="1" pageWidth="1169" pageHeight="827" math="0" shadow="0">
      <root>
        <mxCell id="0" />
        <mxCell id="1" parent="0" />
        <mxCell id="q5EC6C0fwc-eZ3L-DjKY-39" style="edgeStyle=orthogonalEdgeStyle;rounded=0;orthogonalLoop=1;jettySize=auto;html=1;exitX=0.5;exitY=0;exitDx=0;exitDy=0;entryX=0.5;entryY=1;entryDx=0;entryDy=0;strokeColor=#7EA6E0;strokeWidth=3;" parent="1" source="q5EC6C0fwc-eZ3L-DjKY-67" target="q5EC6C0fwc-eZ3L-DjKY-64" edge="1">
          <mxGeometry relative="1" as="geometry">
            <mxPoint x="165" y="366" as="sourcePoint" />
            <mxPoint x="165" y="288" as="targetPoint" />
          </mxGeometry>
        </mxCell>
        <mxCell id="q5EC6C0fwc-eZ3L-DjKY-40" style="edgeStyle=orthogonalEdgeStyle;rounded=0;orthogonalLoop=1;jettySize=auto;html=1;entryX=1;entryY=0.5;entryDx=0;entryDy=0;exitX=0;exitY=0.5;exitDx=0;exitDy=0;strokeColor=#7EA6E0;strokeWidth=3;" parent="1" source="q5EC6C0fwc-eZ3L-DjKY-68" target="q5EC6C0fwc-eZ3L-DjKY-67" edge="1">
          <mxGeometry relative="1" as="geometry">
            <mxPoint x="340" y="488" as="sourcePoint" />
            <mxPoint x="258" y="409" as="targetPoint" />
          </mxGeometry>
        </mxCell>
        <mxCell id="q5EC6C0fwc-eZ3L-DjKY-53" style="edgeStyle=orthogonalEdgeStyle;rounded=0;orthogonalLoop=1;jettySize=auto;html=1;entryX=0.5;entryY=0;entryDx=0;entryDy=0;strokeColor=#7EA6E0;strokeWidth=3;exitX=0;exitY=0.5;exitDx=0;exitDy=0;" parent="1" target="q5EC6C0fwc-eZ3L-DjKY-68" edge="1" source="q5EC6C0fwc-eZ3L-DjKY-65">
          <mxGeometry relative="1" as="geometry">
            <mxPoint x="570" y="321" as="sourcePoint" />
            <mxPoint x="420" y="438" as="targetPoint" />
          </mxGeometry>
        </mxCell>
        <mxCell id="q5EC6C0fwc-eZ3L-DjKY-36" value="" style="endArrow=block;dashed=1;endFill=0;endSize=12;html=1;exitX=0.5;exitY=1;exitDx=0;exitDy=0;entryX=0.5;entryY=0;entryDx=0;entryDy=0;strokeColor=#7EA6E0;strokeWidth=3;" parent="1" source="q5EC6C0fwc-eZ3L-DjKY-42" target="q5EC6C0fwc-eZ3L-DjKY-65" edge="1">
          <mxGeometry width="160" relative="1" as="geometry">
            <mxPoint x="650" y="206" as="sourcePoint" />
            <mxPoint x="740" y="230" as="targetPoint" />
          </mxGeometry>
        </mxCell>
        <mxCell id="q5EC6C0fwc-eZ3L-DjKY-41" value="" style="endArrow=block;dashed=1;endFill=0;endSize=12;html=1;exitX=0.5;exitY=1;exitDx=0;exitDy=0;entryX=0.5;entryY=0;entryDx=0;entryDy=0;strokeColor=#7EA6E0;strokeWidth=3;" parent="1" source="q5EC6C0fwc-eZ3L-DjKY-44" target="q5EC6C0fwc-eZ3L-DjKY-63" edge="1">
          <mxGeometry width="160" relative="1" as="geometry">
            <mxPoint x="384" y="556" as="sourcePoint" />
            <mxPoint x="414" y="182" as="targetPoint" />
          </mxGeometry>
        </mxCell>
        <mxCell id="q5EC6C0fwc-eZ3L-DjKY-42" value="&lt;b&gt;SchnoodleGovernance&lt;/b&gt;" style="html=1;fillColor=#e6d0de;strokeColor=#996185;gradientColor=#d5739d;" parent="1" vertex="1">
          <mxGeometry x="570" y="90" width="160" height="50" as="geometry" />
        </mxCell>
        <mxCell id="q5EC6C0fwc-eZ3L-DjKY-44" value="&lt;span style=&quot;font-weight: 700&quot;&gt;SchnoodleLiquidityTimelock&lt;/span&gt;" style="html=1;fillColor=#e6d0de;strokeColor=#996185;gradientColor=#d5739d;" parent="1" vertex="1">
          <mxGeometry x="360" y="105" width="185" height="50" as="geometry" />
        </mxCell>
        <mxCell id="q5EC6C0fwc-eZ3L-DjKY-45" value="&lt;b&gt;ERC20PresetFixedSupplyUpgradeable&lt;/b&gt;" style="html=1;fillColor=#dae8fc;strokeColor=#6c8ebf;gradientColor=#7ea6e0;" parent="1" vertex="1">
          <mxGeometry x="37" y="80" width="230" height="50" as="geometry" />
        </mxCell>
        <mxCell id="q5EC6C0fwc-eZ3L-DjKY-46" value="" style="endArrow=block;dashed=1;endFill=0;endSize=12;html=1;exitX=0.5;exitY=0;exitDx=0;exitDy=0;entryX=0.5;entryY=1;entryDx=0;entryDy=0;strokeColor=#7EA6E0;strokeWidth=3;" parent="1" source="q5EC6C0fwc-eZ3L-DjKY-64" target="q5EC6C0fwc-eZ3L-DjKY-45" edge="1">
          <mxGeometry width="160" relative="1" as="geometry">
            <mxPoint x="165" y="180" as="sourcePoint" />
            <mxPoint x="-28" y="310" as="targetPoint" />
          </mxGeometry>
        </mxCell>
        <mxCell id="q5EC6C0fwc-eZ3L-DjKY-51" value="" style="endArrow=block;dashed=1;endFill=0;endSize=12;html=1;exitX=0.5;exitY=1;exitDx=0;exitDy=0;entryX=0.5;entryY=0;entryDx=0;entryDy=0;strokeColor=#7EA6E0;strokeWidth=3;" parent="1" source="q5EC6C0fwc-eZ3L-DjKY-65" target="q5EC6C0fwc-eZ3L-DjKY-69" edge="1">
          <mxGeometry width="160" relative="1" as="geometry">
            <mxPoint x="650.96" y="376" as="sourcePoint" />
            <mxPoint x="650" y="446" as="targetPoint" />
          </mxGeometry>
        </mxCell>
        <mxCell id="q5EC6C0fwc-eZ3L-DjKY-52" style="edgeStyle=orthogonalEdgeStyle;rounded=0;orthogonalLoop=1;jettySize=auto;html=1;exitX=0.09;exitY=0.5;exitDx=0;exitDy=0;entryX=1;entryY=0.5;entryDx=0;entryDy=0;exitPerimeter=0;strokeColor=#7EA6E0;strokeWidth=3;" parent="1" source="q5EC6C0fwc-eZ3L-DjKY-72" target="q5EC6C0fwc-eZ3L-DjKY-65" edge="1">
          <mxGeometry relative="1" as="geometry">
            <mxPoint x="878" y="449" as="sourcePoint" />
            <mxPoint x="750" y="323" as="targetPoint" />
          </mxGeometry>
        </mxCell>
        <mxCell id="q5EC6C0fwc-eZ3L-DjKY-54" style="edgeStyle=orthogonalEdgeStyle;rounded=0;orthogonalLoop=1;jettySize=auto;html=1;entryX=1;entryY=0.5;entryDx=0;entryDy=0;dashed=1;exitX=0;exitY=0.5;exitDx=0;exitDy=0;strokeColor=#7EA6E0;strokeWidth=3;" parent="1" source="q5EC6C0fwc-eZ3L-DjKY-63" target="q5EC6C0fwc-eZ3L-DjKY-64" edge="1">
          <mxGeometry relative="1" as="geometry">
            <mxPoint x="334" y="225" as="sourcePoint" />
            <mxPoint x="205" y="180" as="targetPoint" />
          </mxGeometry>
        </mxCell>
        <mxCell id="q5EC6C0fwc-eZ3L-DjKY-63" value="&lt;p style=&quot;margin: 0px ; margin-top: 4px ; text-align: center&quot;&gt;&lt;b&gt;TokenTimelock&lt;/b&gt;&lt;/p&gt;&lt;hr size=&quot;1&quot;&gt;&lt;p style=&quot;margin: 0px ; margin-left: 4px&quot;&gt;- _releaseTime&lt;br style=&quot;padding: 0px ; margin: 0px&quot;&gt;- _beneficiary&lt;br&gt;&lt;/p&gt;&lt;hr size=&quot;1&quot;&gt;&lt;p style=&quot;margin: 0px ; margin-left: 4px&quot;&gt;+ release()&lt;/p&gt;" style="verticalAlign=top;align=left;overflow=fill;fontSize=12;fontFamily=Helvetica;html=1;fillColor=#dae8fc;strokeColor=#6c8ebf;gradientColor=#7ea6e0;" parent="1" vertex="1">
          <mxGeometry x="372.5" y="220" width="160" height="90" as="geometry" />
        </mxCell>
        <mxCell id="q5EC6C0fwc-eZ3L-DjKY-64" value="&lt;p style=&quot;margin: 0px ; margin-top: 4px ; text-align: center&quot;&gt;&lt;b&gt;Schnoodle&lt;/b&gt;&lt;/p&gt;&lt;hr size=&quot;1&quot;&gt;&lt;p style=&quot;margin: 0px ; margin-left: 4px&quot;&gt;- _feesWallet&lt;br style=&quot;padding: 0px ; margin: 0px&quot;&gt;- _feePercent&lt;br&gt;&lt;/p&gt;&lt;hr size=&quot;1&quot;&gt;&lt;p style=&quot;margin: 0px ; margin-left: 4px&quot;&gt;+ balanceOf()&lt;br style=&quot;padding: 0px ; margin: 0px&quot;&gt;+ balanceOfBurnable()&lt;br&gt;&lt;/p&gt;" style="verticalAlign=top;align=left;overflow=fill;fontSize=12;fontFamily=Helvetica;html=1;fillColor=#e6d0de;strokeColor=#996185;gradientColor=#d5739d;" parent="1" vertex="1">
          <mxGeometry x="72" y="214" width="160" height="102" as="geometry" />
        </mxCell>
        <mxCell id="q5EC6C0fwc-eZ3L-DjKY-65" value="&lt;p style=&quot;margin: 0px ; margin-top: 4px ; text-align: center&quot;&gt;&lt;b&gt;TimelockController&lt;/b&gt;&lt;/p&gt;&lt;hr size=&quot;1&quot;&gt;&lt;p style=&quot;margin: 0px ; margin-left: 4px&quot;&gt;- _minDelay&lt;br&gt;&lt;/p&gt;&lt;hr size=&quot;1&quot;&gt;&lt;p style=&quot;margin: 0px ; margin-left: 4px&quot;&gt;+ schedule()&lt;br style=&quot;padding: 0px ; margin: 0px&quot;&gt;+ execute()&lt;br style=&quot;padding: 0px ; margin: 0px&quot;&gt;+ cancel()&lt;br&gt;&lt;/p&gt;" style="verticalAlign=top;align=left;overflow=fill;fontSize=12;fontFamily=Helvetica;html=1;fillColor=#dae8fc;strokeColor=#6c8ebf;gradientColor=#7ea6e0;" parent="1" vertex="1">
          <mxGeometry x="570" y="280" width="160" height="102" as="geometry" />
        </mxCell>
        <mxCell id="q5EC6C0fwc-eZ3L-DjKY-67" value="&lt;p style=&quot;margin: 0px ; margin-top: 4px ; text-align: center&quot;&gt;&lt;b&gt;TransparentUpgradeableProxy&lt;/b&gt;&lt;/p&gt;&lt;hr size=&quot;1&quot;&gt;&lt;div style=&quot;height: 2px&quot;&gt;+ upgradeTo()&lt;/div&gt;" style="verticalAlign=top;align=left;overflow=fill;fontSize=12;fontFamily=Helvetica;html=1;fillColor=#dae8fc;strokeColor=#6c8ebf;gradientColor=#7ea6e0;" parent="1" vertex="1">
          <mxGeometry x="58" y="450" width="188" height="60" as="geometry" />
        </mxCell>
        <mxCell id="q5EC6C0fwc-eZ3L-DjKY-68" value="&lt;p style=&quot;margin: 0px ; margin-top: 4px ; text-align: center&quot;&gt;&lt;b&gt;ProxyAdmin&lt;/b&gt;&lt;/p&gt;&lt;hr size=&quot;1&quot;&gt;&lt;div style=&quot;height: 2px&quot;&gt;+ transferOwnership()&lt;br style=&quot;padding: 0px ; margin: 0px&quot;&gt;+ upgrade()&lt;br&gt;&lt;/div&gt;" style="verticalAlign=top;align=left;overflow=fill;fontSize=12;fontFamily=Helvetica;html=1;fillColor=#dae8fc;strokeColor=#6c8ebf;gradientColor=#7ea6e0;" parent="1" vertex="1">
          <mxGeometry x="330" y="450" width="188" height="60" as="geometry" />
        </mxCell>
        <mxCell id="q5EC6C0fwc-eZ3L-DjKY-69" value="&lt;p style=&quot;margin: 0px ; margin-top: 4px ; text-align: center&quot;&gt;&amp;lt;ERC165&amp;gt;&lt;/p&gt;&lt;p style=&quot;margin: 0px ; margin-top: 4px ; text-align: center&quot;&gt;&lt;b&gt;AccessControl&lt;/b&gt;&lt;/p&gt;&lt;hr size=&quot;1&quot;&gt;&lt;div style=&quot;height: 2px&quot;&gt;- _roles[PROPOSER]&lt;br style=&quot;padding: 0px ; margin: 0px&quot;&gt;- _roles[EXECUTOR]&lt;br&gt;&lt;/div&gt;" style="verticalAlign=top;align=left;overflow=fill;fontSize=12;fontFamily=Helvetica;html=1;fillColor=#dae8fc;strokeColor=#6c8ebf;gradientColor=#7ea6e0;" parent="1" vertex="1">
          <mxGeometry x="556" y="440" width="188" height="80" as="geometry" />
        </mxCell>
        <mxCell id="q5EC6C0fwc-eZ3L-DjKY-72" value="Gnosis Safe" style="shape=module;align=left;spacingLeft=20;align=center;verticalAlign=top;fillColor=#f5f5f5;strokeColor=#666666;fontStyle=1;gradientColor=#b3b3b3;" parent="1" vertex="1">
          <mxGeometry x="800" y="306" width="100" height="50" as="geometry" />
        </mxCell>
        <mxCell id="q5EC6C0fwc-eZ3L-DjKY-73" value="" style="verticalLabelPosition=bottom;verticalAlign=top;html=1;shape=mxgraph.basic.rect;fillColor2=none;strokeWidth=1;size=20;indent=5;gradientColor=#7ea6e0;fillColor=#dae8fc;strokeColor=#6c8ebf;" parent="1" vertex="1">
          <mxGeometry x="760" y="50" width="20" height="20" as="geometry" />
        </mxCell>
        <mxCell id="q5EC6C0fwc-eZ3L-DjKY-74" value="OpenZeppelin Contracts" style="text;html=1;align=left;verticalAlign=middle;resizable=0;points=[];autosize=1;strokeColor=none;fontColor=#7EA6E0;fontStyle=1" parent="1" vertex="1">
          <mxGeometry x="790" y="50" width="150" height="20" as="geometry" />
        </mxCell>
        <mxCell id="q5EC6C0fwc-eZ3L-DjKY-75" value="Schnoodle Contracts" style="text;html=1;align=left;verticalAlign=middle;resizable=0;points=[];autosize=1;strokeColor=none;fontColor=#7EA6E0;fontStyle=1" parent="1" vertex="1">
          <mxGeometry x="790" y="80" width="140" height="20" as="geometry" />
        </mxCell>
        <mxCell id="q5EC6C0fwc-eZ3L-DjKY-76" value="" style="verticalLabelPosition=bottom;verticalAlign=top;html=1;shape=mxgraph.basic.rect;fillColor2=none;strokeWidth=1;size=20;indent=5;gradientColor=#d5739d;fillColor=#e6d0de;strokeColor=#996185;" parent="1" vertex="1">
          <mxGeometry x="760" y="80" width="20" height="20" as="geometry" />
        </mxCell>
        <mxCell id="zjhKUt4vwbHZjLVqDeJ1-1" value="&lt;span style=&quot;font-weight: 700&quot;&gt;SchnoodleStakingTimelock&lt;/span&gt;" style="html=1;fillColor=#e6d0de;strokeColor=#996185;gradientColor=#d5739d;" vertex="1" parent="1">
          <mxGeometry x="320" y="65" width="190" height="50" as="geometry" />
        </mxCell>
        <mxCell id="zjhKUt4vwbHZjLVqDeJ1-2" value="&lt;span style=&quot;font-weight: 700&quot;&gt;SchnoodleCommunityTimelock&lt;/span&gt;" style="html=1;fillColor=#e6d0de;strokeColor=#996185;gradientColor=#d5739d;" vertex="1" parent="1">
          <mxGeometry x="280" y="25" width="190" height="50" as="geometry" />
        </mxCell>
      </root>
    </mxGraphModel>
  </diagram>
</mxfile>
